<?xml version="1.0" encoding="UTF-8"?>
<svg width="20px" height="20px" viewBox="0 0 20 20" version="1.1" xmlns="http://www.w3.org/2000/svg" xmlns:xlink="http://www.w3.org/1999/xlink">
    <title>ic_applets</title>
    <g id="UI" stroke="none" stroke-width="1" fill="none" fill-rule="evenodd">
        <g id="编组" fill-rule="nonzero">
            <path d="M10,0.7 C12.5681241,0.7 14.8931241,1.74093796 16.5760931,3.42390693 C18.259062,5.10687591 19.3,7.43187591 19.3,10 C19.3,12.5681241 18.259062,14.8931241 16.5760931,16.5760931 C14.8931241,18.259062 12.5681241,19.3 10,19.3 C7.43187591,19.3 5.10687591,18.259062 3.42390693,16.5760931 C1.74093796,14.8931241 0.7,12.5681241 0.7,10 C0.7,7.43187591 1.74093796,5.10687591 3.42390693,3.42390693 C5.10687591,1.74093796 7.43187591,0.7 10,0.7 Z" id="形状" stroke="#FFFFFF" stroke-width="1.4"></path>
            <path d="M13.0225,10.537033 L12.97125,10.5518477 C12.8653292,10.5831025 12.7555366,10.5997211 12.645,10.6012301 C12.165,10.6012301 11.895,10.2802448 12.03875,9.88518604 C12.145,9.5962993 12.425,9.35062212 12.7675,9.23704272 C13.29625,9.04815523 13.66625,8.61359057 13.66625,8.10618694 C13.66625,7.42471053 12.995,6.87162822 12.16625,6.87162822 C11.33625,6.87162822 10.66625,7.42471053 10.66625,8.10618694 L10.66625,11.8938131 C10.66625,12.806152 10.1325,13.6036769 9.33375,14.0542908 C8.87625,14.311079 8.35875,14.4468805 7.8325,14.4444444 C6.2725,14.4444444 5,13.30121 5,11.8938131 C5,11.4469028 5.12875,11.0246837 5.355,10.6592544 C5.72765729,10.0728698 6.30919857,9.64562538 6.985,9.4617324 C7.10191189,9.4252682 7.22365289,9.40613011 7.34625,9.4049427 C7.83,9.4049427 8.1025,9.72592797 7.95625,10.1234559 C7.85625,10.3925897 7.58875,10.6246867 7.27875,10.7481426 C7.24125,10.7604882 7.205,10.7728338 7.16875,10.7876485 C6.6725,10.9901161 6.33375,11.409866 6.33375,11.8938131 C6.33375,12.5752895 7.00375,13.1283718 7.83375,13.1283718 C8.66125,13.1283718 9.33375,12.5752895 9.33375,11.8938131 L9.33375,8.10618694 C9.33375,7.19755172 9.8675,6.39755768 10.665,5.94570919 C11.1225,5.68892098 11.64,5.55311952 12.1675,5.55555556 C13.73,5.55555556 15,6.69879 15,8.10618694 C15,8.54322072 14.875,8.97037803 14.6425,9.34074565 C14.2716171,9.92407394 13.6940957,10.3501039 13.0225,10.5357985 L13.0225,10.537033 L13.0225,10.537033 Z" id="路径" fill="#FFFFFF"></path>
        </g>
    </g>
</svg>