<?xml version="1.0" encoding="UTF-8"?>
<svg width="20px" height="20px" viewBox="0 0 20 20" version="1.1" xmlns="http://www.w3.org/2000/svg" xmlns:xlink="http://www.w3.org/1999/xlink">
    <title>ic_microblog</title>
    <g id="UI" stroke="none" stroke-width="1" fill="none" fill-rule="evenodd">
        <g id="编组" fill-rule="nonzero">
            <path d="M8.61660079,4.00015552 C9.06484426,4.00015552 9.45109334,4.13116961 9.72321048,4.40977155 C10.0341751,4.7281468 10.1422306,5.19993937 10.1052718,5.74861355 C10.0847734,6.05292277 10.0232418,6.32781359 9.91272294,6.55894853 C10.2020827,6.54200381 10.5168738,6.52308981 10.8640283,6.49305368 C11.227697,6.46158873 11.5542814,6.42419973 11.8534396,6.38988375 C12.2994281,6.33872507 12.6789797,6.29332099 13.030303,6.29332099 C13.9181994,6.29332099 14.3980068,6.62572638 14.6104708,6.94212827 C14.8041036,7.22958668 14.948293,7.73122318 14.7395604,8.49862547 C14.6799498,8.7177829 14.6065002,8.90367174 14.5248177,9.06093169 C14.7157321,9.13064391 14.9097389,9.21406275 15.1064489,9.31066817 C15.8052555,9.65385621 16.3515135,10.0717887 16.7161023,10.5649077 C17.045242,11.0100805 17.2183136,11.5151888 17.2183136,12.0681411 C17.2183136,13.4328693 16.2310614,14.8464101 14.6650926,15.8985674 C13.1477101,16.9180801 11.0675432,17.6001555 8.64295125,17.6001555 C6.53918139,17.6001555 4.38947486,17.0319986 2.83625936,15.9726533 C1.57110928,15.1097783 0.7,13.9113642 0.7,12.4053713 C0.7,10.6972741 1.74255249,8.76118405 3.53107147,6.90527515 C5.23424402,5.1615144 7.1646776,4.00015552 8.61660079,4.00015552 Z" id="形状" stroke="#FFFFFF" stroke-width="1.4"></path>
            <path d="M7.90513834,16.0171073 C5.36231884,16.0171073 3.38603426,14.7083981 3.20158103,12.9105754 C3.00395257,10.9144635 5.085639,9.11664075 7.9314888,8.83903577 C8.18181818,8.8125972 8.41897233,8.79937792 8.66930171,8.79937792 C11.2121212,8.79937792 13.1884058,10.1080871 13.372859,11.9059098 C13.5704875,13.9152411 11.4888011,15.6998445 8.64295125,15.9906687 C8.39262187,16.003888 8.14229249,16.0171073 7.90513834,16.0171073 Z M8.66930171,10.0023328 C8.45849802,10.0023328 8.26086957,10.0155521 8.05006588,10.0287714 C5.90250329,10.2402799 4.25559947,11.4828927 4.38735178,12.7916019 C4.50592885,13.9548989 6.02108037,14.8141524 7.90513834,14.8141524 C8.11594203,14.8141524 8.31357049,14.8009331 8.52437418,14.7877138 C10.6719368,14.5762053 12.3056653,13.3335925 12.1870883,12.0248834 C12.0685112,10.8748056 10.5533597,10.0023328 8.66930171,10.0023328 Z" id="形状" fill="#FFFFFF"></path>
            <path d="M7.48353096,14.007776 C7.32542819,14.007776 7.16732543,13.9813375 7.00922266,13.9284603 C6.66666667,13.8227061 6.41633729,13.5979782 6.28458498,13.2939347 C6.16600791,13.0163297 6.17918314,12.6858476 6.32411067,12.3950233 C6.57444005,11.8926905 7.14097497,11.5489891 7.74703557,11.5489891 C7.87878788,11.5489891 8.01054018,11.5622084 8.12911726,11.6018663 C8.48484848,11.6944012 8.77470356,11.9191291 8.90645586,12.2099533 C9.03820817,12.4875583 9.03820817,12.8048212 8.90645586,13.1088647 C8.69565217,13.6508554 8.1027668,14.007776 7.48353096,14.007776 Z" id="路径" fill="#FFFFFF"></path>
            <path d="M19.1831357,7.15163297 C18.8142292,7.15163297 18.5111989,6.84758942 18.5111989,6.47744946 C18.5111989,6.42457232 18.5111989,6.37169518 18.5243742,6.31881804 C18.6034256,6.00155521 18.6429513,5.68429238 18.629776,5.36702955 C18.629776,3.14618974 16.8247694,1.34836703 14.6245059,1.34836703 C14.4532279,1.34836703 14.2819499,1.36158631 14.1238472,1.3748056 C13.7549407,1.41446345 13.4255599,1.15007776 13.3860343,0.779937792 C13.3465086,0.423017107 13.5968379,0.0925349922 13.9657444,0.0396578538 C14.1897233,0.0132192846 14.4137022,0 14.6376812,0 C17.5889328,0 20,2.4059098 20,5.38024883 C20,5.80326594 19.9472991,6.23950233 19.8550725,6.64930016 C19.7760211,6.92690513 19.4993412,7.15163297 19.1831357,7.15163297 Z" id="路径" fill="#FFFFFF"></path>
            <path d="M16.8247694,6.2659409 C16.4953887,6.2659409 16.2187088,6.00155521 16.2318841,5.65785381 C16.2318841,5.61819596 16.2318841,5.59175739 16.2450593,5.55209953 C16.2582345,5.44634526 16.2714097,5.34059098 16.2714097,5.2348367 C16.2582345,4.82503888 16.0869565,4.42846034 15.7839262,4.15085537 C15.4940711,3.87325039 15.1251647,3.72783826 14.7299078,3.72783826 L14.6640316,3.72783826 C14.3346509,3.72783826 14.0711462,3.47667185 14.0711462,3.14618974 C14.0711462,2.98755832 14.1238472,2.82892691 14.229249,2.70995334 C14.3346509,2.59097978 14.4927536,2.52488336 14.6508564,2.52488336 C15.3754941,2.49844479 16.0869565,2.77604977 16.6139657,3.27838258 C17.140975,3.7807154 17.4571805,4.4681182 17.4703557,5.20839813 C17.4703557,5.39346812 17.4571805,5.5785381 17.43083,5.76360809 C17.3649539,6.06765163 17.1277997,6.27916019 16.8247694,6.2659409 L16.8247694,6.2659409 Z" id="路径" fill="#FFFFFF"></path>
        </g>
    </g>
</svg>