<?xml version="1.0" encoding="UTF-8"?>
<svg width="20px" height="20px" viewBox="0 0 20 20" version="1.1" xmlns="http://www.w3.org/2000/svg" xmlns:xlink="http://www.w3.org/1999/xlink">
    <title>ic_phone</title>
    <defs>
        <rect id="path-1" x="0" y="0" width="20" height="20"></rect>
    </defs>
    <g id="UI" stroke="none" stroke-width="1" fill="none" fill-rule="evenodd">
        <g id="ic_phone">
            <mask id="mask-2" fill="white">
                <use xlink:href="#path-1"></use>
            </mask>
            <use id="蒙版" fill-opacity="0" fill="#D8D8D8" xlink:href="#path-1"></use>
            <g id="编组" mask="url(#mask-2)" fill-rule="nonzero" stroke="#FFFFFF" stroke-width="1.4">
                <g transform="translate(2.000000, 1.000000)" id="路径">
                    <path d="M4.62092987,0.695560909 L4.75947933,0.704783567 C5.33351105,0.786002382 5.82839765,1.23452361 6.21598276,1.94742776 C6.73609937,2.85659005 7.110436,3.39538603 7.10259462,3.82859232 C7.09756179,4.1066369 6.7815481,4.2443336 6.40767963,4.46915305 C5.34664495,6.09664863 5.61301756,6.48100184 5.84412256,6.95567291 C6.15786635,7.60007742 6.68453114,8.43902959 7.42905438,9.38848571 C8.2010262,10.4667285 8.84761872,11.2740904 9.34860976,11.7692038 C9.6455732,12.0626833 9.90695725,12.2584947 10.11997,12.3666837 C12.2118524,11.8191974 12.5730924,11.6586917 12.8815198,11.8187057 C13.2836448,12.0273306 13.6607132,12.4868858 14.2124329,13.1061608 C14.3189286,13.2256964 14.4306551,13.3510994 14.550159,13.4838946 C14.8983962,13.8682054 15.1318008,14.2157588 15.2395963,14.5485729 C15.3201378,14.7972412 15.3181899,15.0305097 15.2339975,15.2559277 C15.0284814,15.7035403 14.1377672,16.3947696 13.4727695,16.7442527 C12.3836988,17.3404735 11.8843462,17.3416829 11.3202354,17.2267898 C10.599193,17.0799343 9.78050508,16.7284757 8.92140381,16.2125918 C7.21096903,15.1854884 5.35835099,13.5114465 3.79573726,11.3936329 C2.23282758,9.30063158 1.23039528,7.13566347 0.85825886,5.34120519 C0.679505961,4.47925082 0.645238554,3.70982167 0.785418215,3.09259673 C0.888792737,2.63742847 1.08632801,2.26856321 1.4323562,2.06596938 L1.4323562,2.06596938 L2.0106881,1.74681916 C2.90745022,1.24281804 4.10119623,0.611644179 4.75947934,0.704783569 Z"></path>
                </g>
            </g>
            <path d="M18.259423,9 C17.9249689,9 17.6502388,8.74491682 17.6502388,8.43438078 C17.6502388,8.39001848 17.6502388,8.34565619 17.6621836,8.3012939 C17.7338523,8.03512015 17.7696867,7.7689464 17.7577419,7.50277264 C17.7577419,5.63955638 16.1213057,4.13123845 14.1265259,4.13123845 C13.9712436,4.13123845 13.8159613,4.14232902 13.6726239,4.15341959 C13.3381698,4.18669131 13.03955,3.96487985 13.0037156,3.65434381 C12.9678813,3.35489834 13.1948323,3.07763401 13.5292864,3.03327172 C13.7323478,3.01109057 13.9354092,3 14.1384707,3 C16.8141035,3 19,5.01848429 19,7.51386322 C19,7.86876155 18.9522208,8.23475046 18.8686073,8.57855823 C18.7969386,8.81146026 18.546098,9 18.259423,9 Z" id="路径" fill="#FFFFFF" fill-rule="nonzero" mask="url(#mask-2)" transform="translate(16.000000, 6.000000) rotate(7.000000) translate(-16.000000, -6.000000) "></path>
            <path d="M16.4302326,7.99952988 C16.1395349,7.99952988 15.8953488,7.787647 15.9069767,7.51219925 C15.9069767,7.48041682 15.9069767,7.45922853 15.9186047,7.4274461 C15.9302326,7.34269295 15.9418605,7.2579398 15.9418605,7.17318664 C15.9302326,6.84476818 15.7790698,6.52694386 15.5116279,6.30446683 C15.255814,6.08198981 14.9302326,5.96545422 14.5813953,5.96545422 L14.5232558,5.96545422 C14.2325581,5.96545422 14,5.76416549 14,5.49931188 C14,5.37218216 14.0465116,5.24505243 14.1395349,5.14970513 C14.2325581,5.05435783 14.372093,5.00138711 14.5116279,5.00138711 C15.1511628,4.98019883 15.7790698,5.20267585 16.244186,5.60525333 C16.7093023,6.0078308 16.9883721,6.55872629 17,7.15199836 C17,7.30031637 16.9883721,7.44863439 16.9651163,7.59695241 C16.9069767,7.84061772 16.6976744,8.01012402 16.4302326,7.99952988 L16.4302326,7.99952988 Z" id="路径" fill="#FFFFFF" fill-rule="nonzero" mask="url(#mask-2)" transform="translate(15.500000, 6.500000) rotate(7.000000) translate(-15.500000, -6.500000) "></path>
        </g>
    </g>
</svg>