<?xml version="1.0" encoding="UTF-8"?>
<svg width="20px" height="20px" viewBox="0 0 20 20" version="1.1" xmlns="http://www.w3.org/2000/svg" xmlns:xlink="http://www.w3.org/1999/xlink">
    <title>ic_WeChat</title>
    <defs>
        <rect id="path-1" x="0" y="0" width="20" height="20"></rect>
    </defs>
    <g id="UI" stroke="none" stroke-width="1" fill="none" fill-rule="evenodd">
        <g id="编组">
            <mask id="mask-2" fill="white">
                <use xlink:href="#path-1"></use>
            </mask>
            <use id="蒙版" fill-opacity="0" fill="#D8D8D8" xlink:href="#path-1"></use>
            <g mask="url(#mask-2)" id="编组-10">
                <g transform="translate(1.000000, 2.000000)">
                    <g transform="translate(-0.000000, 0.000000)">
                        <path d="M13.5388835,5.22286938 C13.7688802,5.22286938 13.9955566,5.23981373 14.22111,5.26646338 C13.6088867,2.24442541 10.5588867,5.32907052e-15 7.07888997,5.32907052e-15 C3.18777669,5.32907052e-15 -7.63833441e-14,2.81006505 -7.63833441e-14,6.37838528 C-7.63833441e-14,8.43748742 0.83856502,9.9838106 2.61078182,11.2956049 L2.61078182,13.35925 L4.6,12.3824867 C5.48556315,12.5678278 6.19554036,12.7579771 7.07888997,12.7579771 C7.30110677,12.7579771 7.52111003,12.7458765 7.74000651,12.7289144" id="路径" stroke="#FFFFFF" stroke-width="1.4" fill-rule="nonzero"></path>
                        <path d="M9.73331706,3.95523026 C10.2666504,3.95523026 10.6188802,4.29991776 10.6188802,4.82427632 C10.6188802,5.34526316 10.2655273,5.69445724 9.73331706,5.69445724 C9.20332031,5.69445724 8.66998698,5.34412829 8.66998698,4.82427632 C8.66998698,4.29993421 9.20332031,3.95634868 9.73331706,3.95634868 L9.73331706,3.95523026 Z" id="路径" fill="#FFFFFF" fill-rule="nonzero"></path>
                        <path d="M4.77888997,5.69445724 C4.24889323,5.69445724 3.71222331,5.34412829 3.71222331,4.82427632 C3.71222331,4.30105263 4.24777018,3.95634868 4.77888997,3.95634868 C5.31000977,3.95634868 5.66333008,4.29993421 5.66333008,4.82427632 C5.66333008,5.34412829 5.30999349,5.69445724 4.77888997,5.69445724 Z" id="路径" fill="#FFFFFF" fill-rule="nonzero"></path>
                        <path d="M12.9866536,5.81430921 C14.4394417,5.81430921 15.8116935,6.38550278 16.8142201,7.30453243 C17.7763968,8.18657283 18.4,9.39328678 18.4,10.726825 C18.4,12.3355351 17.8896027,13.6652886 16.4522298,14.7126147 L16.4522298,14.7126147 L16.4522298,16.0924334 L14.8945635,15.4292548 C14.1764563,15.6474166 13.7523372,15.6413569 13.1138777,15.6406234 C11.4782243,15.6405361 10.1135778,15.0928163 9.13025647,14.1921925 C8.16315207,13.3064217 7.56666667,12.0816563 7.56666667,10.7268071 C7.56666667,9.37411484 8.1638648,8.14926046 9.13167437,7.26303791 C10.1118777,6.36546644 11.4704555,5.81430921 12.9866536,5.81430921 Z" id="路径" stroke="#FFFFFF" stroke-width="1.2" fill-rule="nonzero"></path>
                        <path d="M11.0355632,10.3889145 C10.6833333,10.3889145 10.3277832,10.0453289 10.3277832,9.69276316 C10.3277832,9.34694079 10.6833333,8.99886513 11.0355632,8.99886513 C11.57111,8.99886513 11.9222168,9.34694079 11.9222168,9.69388158 C11.9222168,10.0453289 11.57111,10.3900329 11.0355632,10.3900329 L11.0355632,10.3889145 Z" id="路径" fill="#FFFFFF" fill-rule="nonzero"></path>
                        <path d="M14.92889,10.3889145 C14.57889,10.3889145 14.2255534,10.0453289 14.2255534,9.69276316 C14.2255534,9.34694079 14.57889,8.99886513 14.92889,8.99886513 C15.4599935,8.99886513 15.8155599,9.34694079 15.8155599,9.69388158 C15.8155599,10.0453289 15.4599935,10.3900329 14.92889,10.3900329 L14.92889,10.3889145 Z" id="路径" fill="#FFFFFF" fill-rule="nonzero"></path>
                    </g>
                </g>
            </g>
        </g>
    </g>
</svg>