<?xml version="1.0" encoding="UTF-8"?>
<svg width="98px" height="38px" viewBox="0 0 98 38" version="1.1" xmlns="http://www.w3.org/2000/svg" xmlns:xlink="http://www.w3.org/1999/xlink">
    <title>logo_top</title>
    <defs>
        <rect id="path-1" x="0" y="0" width="1920" height="60"></rect>
        <filter x="-0.6%" y="-15.0%" width="101.2%" height="140.0%" filterUnits="objectBoundingBox" id="filter-2">
            <feOffset dx="0" dy="3" in="SourceAlpha" result="shadowOffsetOuter1"></feOffset>
            <feGaussianBlur stdDeviation="3.5" in="shadowOffsetOuter1" result="shadowBlurOuter1"></feGaussianBlur>
            <feComposite in="shadowBlurOuter1" in2="SourceAlpha" operator="out" result="shadowBlurOuter1"></feComposite>
            <feColorMatrix values="0 0 0 0 0.230129076   0 0 0 0 0.230129076   0 0 0 0 0.230129076  0 0 0 0.0992132867 0" type="matrix" in="shadowBlurOuter1"></feColorMatrix>
        </filter>
        <filter id="filter-3">
            <feColorMatrix in="SourceGraphic" type="matrix" values="0 0 0 0 0.000000 0 0 0 0 0.000000 0 0 0 0 0.000000 0 0 0 1.000000 0"></feColorMatrix>
        </filter>
        <polygon id="path-4" points="0 0 67.6431347 0 67.6431347 9.17378992 0 9.17378992"></polygon>
        <polygon id="path-6" points="0 0 9.20998956 0 9.20998956 27.665477 0 27.665477"></polygon>
        <polygon id="path-8" points="0 0 9.20998952 0 9.20998952 27.665477 0 27.665477"></polygon>
    </defs>
    <g id="UI" stroke="none" stroke-width="1" fill="none" fill-rule="evenodd">
        <g id="关于我们" transform="translate(-50.000000, -2171.000000)">
            <g id="编组-2备份-4" transform="translate(0.000000, 2160.000000)">
                <g id="矩形">
                    <use fill="black" fill-opacity="1" filter="url(#filter-2)" xlink:href="#path-1"></use>
                    <use fill-opacity="0.08" fill="#FFFFFF" fill-rule="evenodd" xlink:href="#path-1"></use>
                </g>
                <g id="生态传播海报logo" transform="translate(50.752022, 14.040000)" filter="url(#filter-3)">
                    <g id="岚图logo" transform="translate(0.000026, 0.131774)">
                        <g id="编组" transform="translate(25.071957, 12.087726)">
                            <mask id="mask-5" fill="white">
                                <use xlink:href="#path-4"></use>
                            </mask>
                            <g id="Clip-2"></g>
                            <path d="M13.2316544,0.0696426613 L11.2676252,0.0696426613 C11.0369867,0.0696426613 10.820231,0.180860081 10.6848078,0.368901855 L6.71929192,5.8762725 C6.68039377,5.93043169 6.60024,5.93029992 6.56121088,5.8762725 L2.59595693,0.368901855 C2.46066471,0.180860081 2.24390902,0.0696426613 2.01313951,0.0696426613 L0.0345726149,0.0696426613 C0.00641402062,0.0696426613 -0.00995725511,0.101927339 0.00667596103,0.124856048 L6.51510937,9.10144589 C6.57339111,9.18182815 6.69270497,9.18182815 6.75111768,9.10144589 L13.2595511,0.124856048 C13.2761843,0.101927339 13.259944,0.0696426613 13.2316544,0.0696426613 L13.2316544,0.0696426613 Z M25.0265692,6.24181411 C25.0265692,6.79407976 24.5816634,7.24171669 24.0327673,7.24171669 L17.2200901,7.24171669 C16.671194,7.24171669 16.2262882,6.79407976 16.2262882,6.24181411 L16.2262882,2.98936347 C16.2262882,2.4372296 16.671194,1.98946089 17.2200901,1.98946089 L24.0327673,1.98946089 C24.5816634,1.98946089 25.0265692,2.4372296 25.0265692,2.98936347 L25.0265692,6.24181411 Z M24.7356844,0.0696426613 L16.517042,0.0696426613 C15.3096277,0.0696426613 14.3307564,1.05452298 14.3307564,2.26934927 L14.3307564,6.96196008 C14.3307564,8.17678637 15.3096277,9.16179847 16.517042,9.16179847 L24.7356844,9.16179847 C25.9430987,9.16179847 26.922101,8.17678637 26.922101,6.96196008 L26.922101,2.26934927 C26.922101,1.05452298 25.9430987,0.0696426613 24.7356844,0.0696426613 L24.7356844,0.0696426613 Z M40.8008827,0.0817658871 L38.7500203,0.0817658871 C38.4297981,0.0817658871 38.1220182,0.206951371 37.8917725,0.431099274 L34.4815703,3.78317121 C34.4430651,3.82112218 34.3815091,3.8209904 34.3430038,3.78317121 L30.9403979,0.431889919 C30.7102832,0.207346694 30.4021103,0.0817658871 30.0813643,0.0817658871 L28.0238224,0.0817658871 C27.990425,0.0817658871 27.9739227,0.122747661 27.9980213,0.146203468 L33.3013978,5.48134524 C33.3670139,5.54736411 33.4038165,5.63683879 33.4038165,5.73026669 L33.4038165,9.08589653 C33.4038165,9.13452121 33.4429766,9.17378992 33.4911736,9.17378992 L35.3334005,9.17378992 C35.3817285,9.17378992 35.4207577,9.13452121 35.4207577,9.08589653 L35.4207577,5.73026669 C35.4207577,5.63683879 35.4576913,5.54736411 35.5233073,5.48134524 L40.8266839,0.146203468 C40.8506514,0.122747661 40.8341492,0.0817658871 40.8008827,0.0817658871 L40.8008827,0.0817658871 Z M67.5558693,0.0817658871 L65.7132495,0.0817658871 C65.6650524,0.0817658871 65.6258923,0.121166371 65.6258923,0.169791048 L65.6258923,3.56548024 C65.6258923,3.62385621 65.579005,3.67103137 65.5211162,3.67103137 L57.1539536,3.67103137 C57.0959338,3.67103137 57.0490465,3.62385621 57.0490465,3.56548024 L57.0490465,0.169791048 C57.0490465,0.121166371 57.0098864,0.0817658871 56.9615584,0.0817658871 L55.1194624,0.0817658871 C55.0711344,0.0817658871 55.0319743,0.121166371 55.0319743,0.169791048 L55.0319743,9.08589653 C55.0319743,9.13452121 55.0711344,9.17378992 55.1194624,9.17378992 L56.9615584,9.17378992 C57.0098864,9.17378992 57.0490465,9.13452121 57.0490465,9.08589653 L57.0490465,5.68994379 C57.0490465,5.63156782 57.0959338,5.58439266 57.1539536,5.58439266 L65.5211162,5.58439266 C65.579005,5.58439266 65.6258923,5.63156782 65.6258923,5.68994379 L65.6258923,9.08589653 C65.6258923,9.13452121 65.6650524,9.17378992 65.7132495,9.17378992 L67.5558693,9.17378992 C67.6040663,9.17378992 67.6432264,9.13452121 67.6432264,9.08589653 L67.6432264,0.169791048 C67.6432264,0.121166371 67.6040663,0.0817658871 67.5558693,0.0817658871 L67.5558693,0.0817658871 Z M46.0772794,0.0602866935 C46.0188667,-0.0200955645 45.8996838,-0.0200955645 45.8414021,0.0602866935 L39.2732463,9.11910363 C39.2566131,9.14190056 39.2728534,9.17378992 39.300881,9.17378992 L41.2804956,9.17378992 C41.5111342,9.17378992 41.7280208,9.06270427 41.8633131,8.8746625 L45.8877655,3.28493298 C45.9266637,3.23103734 46.0064245,3.23103734 46.0451917,3.28480121 L50.0700371,8.8746625 C50.2053293,9.06270427 50.422085,9.17378992 50.6527236,9.17378992 L52.6178005,9.17378992 C52.6458282,9.17378992 52.6619375,9.14190056 52.6454352,9.11910363 L46.0772794,0.0602866935 Z" id="Fill-1" fill="#FFFFFF" mask="url(#mask-5)"></path>
                        </g>
                        <g id="编组" transform="translate(13.158674, 0.000000)">
                            <mask id="mask-7" fill="white">
                                <use xlink:href="#path-6"></use>
                            </mask>
                            <g id="Clip-4"></g>
                            <path d="M9.20998956,4.25794045 L9.20998956,0.070420129 C9.20998956,0.00585077419 9.13088356,-0.0245890645 9.0880563,0.0233767419 L1.36775558,8.67250771 C0.814537432,9.29210997 0.497982445,10.0892121 0.474407808,10.9216296 L0,27.59291 C-0.00206180072,27.6660446 0.0940703303,27.6934537 0.130480048,27.6300703 L1.09376591,25.9502129 C1.20705514,25.7526834 1.28092234,25.5349924 1.31156936,25.3091314 L2.68832817,15.1538214 C2.88858161,13.6767645 3.55011212,12.3018325 4.57744241,11.2276093 L7.74495684,7.91559674 C8.68493001,6.93282481 9.20998956,5.62193513 9.20998956,4.25794045" id="Fill-3" fill="#FFFFFF" mask="url(#mask-7)"></path>
                        </g>
                        <g id="编组">
                            <mask id="mask-9" fill="white">
                                <use xlink:href="#path-8"></use>
                            </mask>
                            <g id="Clip-6"></g>
                            <path d="M0,4.25794045 L0,0.070420129 C0,0.00585077419 0.0791060043,-0.0245890645 0.121933262,0.0233767419 L7.84223398,8.67250771 C8.39532116,9.29210997 8.71187615,10.0892121 8.73558176,10.9216296 L9.20998952,27.59291 C9.21205136,27.6660446 9.11578826,27.6934537 9.07950952,27.6300703 L8.11622365,25.9502129 C8.00293442,25.7526834 7.92893626,25.5349924 7.8984202,25.3091314 L6.5216614,15.1538214 C6.32140795,13.6767645 5.65987744,12.3018325 4.63241618,11.2276093 L1.46503272,7.91559674 C0.525059555,6.93282481 0,5.62193513 0,4.25794045" id="Fill-5" fill="#FFFFFF" mask="url(#mask-9)"></path>
                        </g>
                        <path d="M12.1763917,9.41385615 L11.2757096,8.62900905 C11.2231906,8.5832834 11.1451323,8.5832834 11.0927442,8.62900905 L10.1921931,9.41385615 C10.0335882,9.55208727 9.94505231,9.75462421 9.95107694,9.96559469 L10.5547186,31.1902005 C10.5564212,31.2484447 10.5723996,31.3055029 10.601475,31.3559724 L11.1235222,32.2658732 C11.1505021,32.3126531 11.2176898,32.3126531 11.2446697,32.2658732 L11.7671098,31.3555771 C11.7961852,31.3051076 11.8121636,31.2480494 11.8138662,31.1898052 L12.4175079,9.96559469 C12.4235325,9.75462421 12.3349966,9.55208727 12.1763917,9.41385615" id="Fill-7" fill="#FFFFFF"></path>
                    </g>
                </g>
            </g>
        </g>
    </g>
</svg>