<?xml version="1.0" encoding="UTF-8"?>
<svg width="40px" height="40px" viewBox="0 0 40 40" version="1.1" xmlns="http://www.w3.org/2000/svg" xmlns:xlink="http://www.w3.org/1999/xlink">
    <title>ic_equity8_4</title>
    <g id="UI" stroke="none" stroke-width="1" fill="none" fill-rule="evenodd">
        <g id="8大权益-按钮点击状态" transform="translate(-513.000000, -524.000000)">
            <g id="编组-9" transform="translate(139.000000, 394.000000)">
                <g id="ic_equity8_4" transform="translate(374.000000, 130.000000)">
                    <circle id="椭圆形" stroke-opacity="0.34" stroke="#FFFFFF" stroke-width="0.8" cx="20" cy="20" r="19.6"></circle>
                    <g id="编组" transform="translate(12.631579, 11.578947)" fill-rule="nonzero">
                        <path d="M13.6765634,0.4 C13.8422488,0.4 13.9922488,0.467157288 14.1008274,0.575735931 C14.2094061,0.684314575 14.2765634,0.834314575 14.2765634,1 L14.2765634,1 L14.2765634,15.8421053 C14.2765634,16.0077907 14.2094061,16.1577907 14.1008274,16.2663693 C13.9922488,16.374948 13.8422488,16.4421053 13.6765634,16.4421053 L13.6765634,16.4421053 L1,16.4421053 C0.834314575,16.4421053 0.684314575,16.374948 0.575735931,16.2663693 C0.467157288,16.1577907 0.4,16.0077907 0.4,15.8421053 L0.4,15.8421053 L0.4,1 C0.4,0.834314575 0.467157288,0.684314575 0.575735931,0.575735931 L0.575735931,0.575735931 Z" id="形状" stroke="#FFFFFF" stroke-width="0.8"></path>
                        <path d="M9.30585846,9.97052632 C9.30856703,9.92961333 9.29204309,9.88959691 9.26047235,9.86061367 C9.2289016,9.83163044 9.18531266,9.81646079 9.14074712,9.81894737 L7.82902927,9.81894737 L8.63165383,7.60421053 C8.63911919,7.58953253 8.63911919,7.57257273 8.63165383,7.55789474 C8.6343624,7.51698175 8.61783846,7.47696533 8.58626772,7.44798209 C8.55469697,7.41899886 8.51110803,7.40382921 8.46654249,7.40631579 L6.84753409,7.40631579 C6.77865385,7.40778493 6.7189878,7.45057857 6.70076846,7.51157895 L5.38905061,11.1242105 L5.38905061,11.1705263 C5.38634204,11.2114393 5.40286597,11.2514557 5.43443672,11.280439 C5.46600747,11.3094222 5.5095964,11.3245918 5.55416195,11.3221053 L7.01264543,11.3221053 L6.70076846,13.8484211 C6.69805989,13.889334 6.71458383,13.9293505 6.74615457,13.9583337 C6.77772532,13.9873169 6.82131425,14.0024866 6.8658798,14 C6.92994296,14.0010058 6.98815648,13.9659343 7.01264543,13.9115789 L9.30585846,9.99578947 L9.30585846,9.97052632 L9.30585846,9.97052632 Z M0.56932098,4.41518895 L14.4072236,4.41518895 L14.4072236,5.25729421 L0.56932098,5.25729421 L0.56932098,4.41518895 Z" id="形状" fill="#FFFFFF"></path>
                    </g>
                </g>
            </g>
        </g>
    </g>
</svg>