<?xml version="1.0" encoding="UTF-8"?>
<svg width="40px" height="40px" viewBox="0 0 40 40" version="1.1" xmlns="http://www.w3.org/2000/svg" xmlns:xlink="http://www.w3.org/1999/xlink">
    <title>ic_equity6_5</title>
    <g id="UI" stroke="none" stroke-width="1" fill="none" fill-rule="evenodd">
        <g id="8大权益-按钮点击状态" transform="translate(-326.000000, -524.000000)" stroke="#FFFFFF" stroke-width="0.8">
            <g id="编组-9" transform="translate(139.000000, 394.000000)">
                <g id="ic_equity6_5" transform="translate(187.000000, 130.000000)">
                    <circle id="椭圆形" stroke-opacity="0.34" cx="20" cy="20" r="19.6"></circle>
                    <g id="编组" transform="translate(13.684211, 10.526316)">
                        <g id="编组-11" transform="translate(0.000000, 0.000000)">
                            <path d="M6.72326904,3.44652807 C8.44325394,3.44652807 10.0027381,4.13310567 11.142675,5.24718804 C12.2852926,6.36389036 13.0064583,7.91008017 13.045044,9.61593892 L13.045044,9.61593892 L13.0464479,15.8449359 L0.4,15.8449359 L0.4,9.77024525 C0.4,8.02401893 1.10781308,6.44313631 2.2520873,5.29878581 C3.3964295,4.15436734 4.97728775,3.44652807 6.72326904,3.44652807 Z" id="路径" fill-rule="nonzero"></path>
                            <line x1="1.14656326e-11" y1="17.3448032" x2="13.4470361" y2="17.3448032" id="路径-9" stroke-linecap="round" stroke-linejoin="round"></line>
                            <path d="M6.79162868,6.23525095 C5.55103099,6.23525095 4.54937436,6.78486245 3.7866588,7.88408545 C3.02394324,8.98330844 2.79605473,10.2612052 3.10299326,11.7177757" id="路径-11" stroke-linecap="round" stroke-linejoin="round"></path>
                            <line x1="12.2454629" y1="4.21377846" x2="14.2689044" y2="3.21095311" id="路径-12" stroke-linecap="round" stroke-linejoin="round"></line>
                            <line x1="9.98218245" y1="2.36551724" x2="11.1890154" y2="0.511322349" id="路径-12" stroke-linecap="round" stroke-linejoin="round"></line>
                            <line x1="6.86105423" y1="2.13614106" x2="6.53386522" y2="0.118775971" id="路径-12" stroke-linecap="round" stroke-linejoin="round"></line>
                        </g>
                    </g>
                </g>
            </g>
        </g>
    </g>
</svg>