<?xml version="1.0" encoding="UTF-8"?>
<svg width="40px" height="40px" viewBox="0 0 40 40" version="1.1" xmlns="http://www.w3.org/2000/svg" xmlns:xlink="http://www.w3.org/1999/xlink">
    <title>ic_equity8_1</title>
    <g id="UI" stroke="none" stroke-width="1" fill="none" fill-rule="evenodd">
        <g id="首页" transform="translate(-513.000000, -1476.000000)">
            <g id="编组-9" transform="translate(139.000000, 1344.000000)">
                <g id="ic_equity8_1" transform="translate(374.000000, 132.000000)">
                    <circle id="椭圆形" stroke-opacity="0.34" stroke="#FFFFFF" stroke-width="0.8" cx="20" cy="20" r="19.6"></circle>
                    <g id="编组" transform="translate(12.105263, 11.578947)">
                        <path d="M9.99506488,5.46905845 C11.4117898,5.46905845 12.448285,6.44723339 13.2250723,7.69658429 C14.8890137,10.3727951 15.3894737,14.3866401 15.3894737,14.3885332 C15.3894737,14.9198942 15.1709765,15.4515027 14.8231302,15.8440172 C14.5100034,16.1973539 14.087439,16.4421053 13.6151189,16.4421053 L13.6151189,16.4421053 L2.1714518,16.4421053 C1.69950161,16.4421053 1.27780265,16.1976449 0.965409751,15.8446652 C0.623170149,15.457961 0.406600381,14.9361452 0.400152328,14.4125471 C0.444308966,14.071238 0.965026043,10.2696006 2.56490541,7.69642434 C3.34163619,6.44716437 4.37797479,5.46905845 5.7944088,5.46905845 L5.7944088,5.46905845 Z M4.25759328,0.562011211 C4.4079513,0.408845769 4.65805073,0.368855147 5.01543225,0.420346122 C5.56473246,0.498192667 5.95289057,0.716883609 6.314465,0.914621097 C6.79338958,1.17653493 7.23589986,1.40221885 7.82361309,1.40221885 C8.35485372,1.40221885 8.73419397,1.17091452 9.13727048,0.899785053 C9.48107618,0.668524114 9.85091809,0.404931855 10.491131,0.424124628 C10.9386754,0.437513018 11.223064,0.502192919 11.3803686,0.66243533 C11.56222,0.847683073 11.554071,1.12773108 11.5519703,1.42992165 C11.4623233,1.67517528 11.0996785,2.61426669 10.577403,3.26988933 C10.3463777,3.55989994 10.0873786,3.82582604 9.78024211,3.82582604 L9.78024211,3.82582604 L5.7944088,3.82582604 C5.48593509,3.82582604 5.22586122,3.55930173 4.99417756,3.26846561 C4.79429205,3.0175462 4.61874289,2.72430004 4.47269813,2.44587029 C4.37928268,2.26777666 4.29791572,2.09535247 4.23020713,1.94235399 C4.06781997,1.19167206 4.03413905,0.789637686 4.25759328,0.562011211 Z" id="形状" stroke="#FFFFFF" stroke-width="0.8" fill-rule="nonzero"></path>
                        <g id="¥" transform="translate(3.684211, 6.315789)" fill="#FFFFFF" font-family="SIL-Hei-Med-Jian, Hei" font-size="8" font-weight="normal" letter-spacing="0.311111111" line-spacing="10">
                            <text>
                                <tspan x="0" y="6">¥</tspan>
                            </text>
                        </g>
                    </g>
                </g>
            </g>
        </g>
    </g>
</svg>