<?xml version="1.0" encoding="UTF-8"?>
<svg width="40px" height="40px" viewBox="0 0 40 40" version="1.1" xmlns="http://www.w3.org/2000/svg" xmlns:xlink="http://www.w3.org/1999/xlink">
    <title>ic_equity6_2</title>
    <defs>
        <rect id="path-1" x="0" y="0" width="40" height="40"></rect>
    </defs>
    <g id="UI" stroke="none" stroke-width="1" fill="none" fill-rule="evenodd">
        <g id="8大权益-按钮点击状态" transform="translate(-326.000000, -396.000000)">
            <g id="编组-9" transform="translate(139.000000, 394.000000)">
                <g id="ic_equity6_2" transform="translate(187.000000, 2.000000)">
                    <mask id="mask-2" fill="white">
                        <use xlink:href="#path-1"></use>
                    </mask>
                    <use id="蒙版" fill-opacity="0" fill="#D8D8D8" xlink:href="#path-1"></use>
                    <g id="编组-7备份-2" mask="url(#mask-2)">
                        <g transform="translate(12.631579, 10.526316)" id="编组">
                            <path d="M7.36842784,15.6077249 C7.65966601,15.6077249 7.89473684,15.9246948 7.89473684,16.3174009 L7.89473684,18.2416608 C7.89473684,18.6343669 7.65966603,18.9513368 7.36842784,18.9513368 C7.07718965,18.9513368 6.84211885,18.6343669 6.84211885,18.2416608 L6.84211885,16.3174009 C6.84003857,15.9274998 7.07718966,15.6077249 7.36842784,15.6077249 L7.36842784,15.6077249 Z" id="路径" fill="#FFFFFF" fill-rule="nonzero"></path>
                            <path d="M5.39554587,15.2145785 L9.33855039,15.2145785 C9.72296587,15.2145785 10.0332441,15.3198368 10.0332441,15.4502453 L10.0332441,16.0892471 C10.0332441,16.2196557 9.72296589,16.324914 9.33855039,16.324914 L5.39554587,16.324914 C5.01113039,16.324914 4.70083425,16.2196557 4.70083425,16.0892471 L4.70083425,15.4502453 C4.69810635,15.3207683 5.01113039,15.2145785 5.39554587,15.2145785 Z M4.27435561,0 C4.56559379,0 4.80066461,0.236045561 4.80066461,0.528491385 L4.80066461,2.73854629 C4.80066461,3.03099212 4.56559379,3.26703769 4.27435561,3.26703769 C3.98311743,3.26703769 3.74804661,3.03099213 3.74804661,2.73854629 L3.74804661,0.528491385 C3.74596634,0.236045561 3.98311743,0 4.27435561,0 Z M10.1229626,0 C10.4142008,0 10.6492716,0.236045561 10.6492716,0.528491385 L10.6492716,2.73854629 C10.6492716,3.03099212 10.4142008,3.26703769 10.1229626,3.26703769 C9.83172441,3.26703769 9.5966536,3.03099213 9.59665358,2.73854629 L9.59665358,0.528491385 C9.59457331,0.236045561 9.8317244,0 10.1229626,0 Z" id="形状" fill="#FFFFFF" fill-rule="nonzero"></path>
                            <path d="M13.2184009,3.17957299 C13.5259305,3.17957299 13.8042572,3.30791588 14.0060073,3.5137581 C14.2106379,3.72253923 14.3368421,4.01095783 14.3368421,4.32881254 L14.3368421,4.32881254 L14.3368421,12.1338423 C14.3368421,12.3576877 14.2731917,12.5752225 14.1547517,12.7627384 L14.1547517,12.7627384 L13.034482,14.5276525 C12.8264611,14.8552853 12.475679,15.0508398 12.0953586,15.0508398 L12.0953586,15.0508398 L2.6387377,15.0508398 C2.25928108,15.0508398 1.90893606,14.8561921 1.70238698,14.5276949 L1.70238698,14.5276949 L0.582565703,12.763489 C0.463650379,12.5752225 0.4,12.3576877 0.4,12.1338423 L0.4,12.1338423 L0.4,4.32881254 C0.4,4.01095782 0.526204178,3.72253922 0.730834815,3.51375808 C0.932584953,3.30791587 1.21091163,3.17957299 1.51844116,3.17957299 L1.51844116,3.17957299 Z" id="形状" stroke="#FFFFFF" stroke-width="0.8" fill-rule="nonzero"></path>
                            <polyline id="路径" fill="#FFFFFF" fill-rule="nonzero" points="9.27539622 4.81627673 4.8573642 8.7047838 8.10034483 9.24579589 5.37632508 12.4251998 10.1018895 8.85326426 6.56792409 8.25834627"></polyline>
                        </g>
                    </g>
                    <circle id="椭圆形" stroke-opacity="0.34" stroke="#FFFFFF" stroke-width="0.8" mask="url(#mask-2)" cx="20" cy="20" r="19.6"></circle>
                </g>
            </g>
        </g>
    </g>
</svg>