<?xml version="1.0" encoding="UTF-8"?>
<svg width="40px" height="40px" viewBox="0 0 40 40" version="1.1" xmlns="http://www.w3.org/2000/svg" xmlns:xlink="http://www.w3.org/1999/xlink">
    <title>ic_equity6_3</title>
    <defs>
        <rect id="path-1" x="0" y="0" width="40" height="40"></rect>
    </defs>
    <g id="UI" stroke="none" stroke-width="1" fill="none" fill-rule="evenodd">
        <g id="8大权益-按钮点击状态" transform="translate(-139.000000, -396.000000)">
            <g id="编组-9" transform="translate(139.000000, 394.000000)">
                <g id="ic_equity6_3" transform="translate(0.000000, 2.000000)">
                    <mask id="mask-2" fill="white">
                        <use xlink:href="#path-1"></use>
                    </mask>
                    <use id="蒙版" fill-opacity="0" fill="#D8D8D8" xlink:href="#path-1"></use>
                    <circle id="椭圆形" stroke-opacity="0.34" stroke="#FFFFFF" stroke-width="0.8" mask="url(#mask-2)" cx="20" cy="20" r="19.6"></circle>
                    <g id="编组" mask="url(#mask-2)">
                        <g transform="translate(10.526316, 12.631579)">
                            <path d="M14.1315728,0.4 C14.3753169,0.4 14.6046389,0.458049656 14.7944158,0.571988945 C14.9655763,0.674751202 15.1032961,0.823548822 15.183515,1.007314 L15.183515,1.007314 L16.5493486,4.27810869 L18.1578886,4.27810869 L16.4190921,5.02936671 C17.0559604,5.85768883 17.3515788,6.02116978 17.636989,6.16208469 C18.0756413,6.47683682 18.3343489,6.8517309 18.4690276,7.34497483 L18.4690276,7.34497483 L18.5473684,13.9612131 L17.3684272,14.3368421 L16.9789474,12.7855841 L1.96842105,12.7855841 L1.96842105,13.9612131 L0.789479852,14.3368421 L0.4,7.75623556 C0.4,7.34219345 0.528240323,6.95945732 0.754530107,6.64820766 C0.982977129,6.33399084 1.31072229,6.09322863 1.70343199,5.96461948 L1.70343199,5.96461948 L3.16021354,5.4875357 L0.822293114,5.0281658 L2.39802418,4.27810869 L3.76137613,1.01311717 C3.84407236,0.823548822 3.9817921,0.674751202 4.1529526,0.571988945 C4.34272953,0.458049656 4.57205155,0.4 4.81579564,0.4 L4.81579564,0.4 Z" id="形状" stroke="#FFFFFF" stroke-width="0.8" fill-rule="nonzero"></path>
                            <path d="M0.236651923,7.92418947 L7.05458694,7.92418947 C7.22067579,7.92418947 7.3841493,7.96555807 7.53024599,8.04455974 L9.01117939,8.84537325 C9.31640862,9.0104257 9.68538348,9.00544879 9.98604986,8.83222373 L11.330373,8.05770926 C11.4822046,7.97023346 11.6543564,7.92418947 11.8295844,7.92418947 L18.7679188,7.92418947 L18.7679188,7.92418947" id="路径-10" stroke="#FFFFFF" stroke-width="0.8"></path>
                        </g>
                    </g>
                </g>
            </g>
        </g>
    </g>
</svg>