<?xml version="1.0" encoding="UTF-8"?>
<svg width="40px" height="40px" viewBox="0 0 40 40" version="1.1" xmlns="http://www.w3.org/2000/svg" xmlns:xlink="http://www.w3.org/1999/xlink">
    <title>ic_equity6_4</title>
    <g id="UI" stroke="none" stroke-width="1" fill="none" fill-rule="evenodd">
        <g id="8大权益-按钮点击状态" transform="translate(-513.000000, -394.000000)">
            <g id="编组-9" transform="translate(139.000000, 394.000000)">
                <g id="ic_equity6_4" transform="translate(374.000000, 0.000000)">
                    <circle id="椭圆形" stroke-opacity="0.34" stroke="#FFFFFF" stroke-width="0.8" cx="20" cy="20" r="19.6"></circle>
                    <g id="编组" transform="translate(11.578947, 11.578947)">
                        <g id="编组-5" transform="translate(0.000000, 0.000000)">
                            <path d="M1.47615481,0.757894737 L15.3724852,0.757894737 C15.6685608,0.757894737 15.6685608,0.0842105263 15.3724852,0.0842105263 L1.47615481,0.0842105263 C1.18007915,0.0842105263 1.16277602,0.757894737 1.47615481,0.757894737 Z" id="路径" fill="#FFFFFF" fill-rule="nonzero"></path>
                            <path d="M16.1021447,2.00401003 C16.1848497,2.00401003 16.248618,2.06910108 16.2996627,2.13962343 C16.3900156,2.26445332 16.4414775,2.43792164 16.4421053,2.62632549 L16.4421053,2.62632549 L16.4421053,15.7994452 C16.4421053,15.9974645 16.3911148,16.1760305 16.3002225,16.3041046 C16.2491495,16.3760703 16.185263,16.4421053 16.1021447,16.4421053 L16.1021447,16.4421053 L0.739960578,16.4421053 C0.655820918,16.4421053 0.593417081,16.3770995 0.543665964,16.3069964 C0.450774847,16.1761058 0.4,15.9940689 0.4,15.7994452 L0.4,15.7994452 L0.4,2.64667008 C0.4,2.44865082 0.450990456,2.27008477 0.541882746,2.1420107 L0.541882746,2.1420107 Z" id="路径" stroke="#FFFFFF" stroke-width="0.8" fill-rule="nonzero"></path>
                            <polyline id="路径-15" stroke="#FFFFFF" stroke-linecap="round" stroke-linejoin="round" points="3.43079922 10.9739348 5.47654005 8.58962926 8.22469259 10.9739348 11.4572517 6.4160401 13.411306 10.2089043"></polyline>
                        </g>
                    </g>
                </g>
            </g>
        </g>
    </g>
</svg>