<?xml version="1.0" encoding="UTF-8"?>
<svg width="40px" height="40px" viewBox="0 0 40 40" version="1.1" xmlns="http://www.w3.org/2000/svg" xmlns:xlink="http://www.w3.org/1999/xlink">
    <title>ic_equity6_1</title>
    <defs>
        <filter id="filter-1">
            <feColorMatrix in="SourceGraphic" type="matrix" values="0 0 0 0 1.000000 0 0 0 0 1.000000 0 0 0 0 1.000000 0 0 0 1.000000 0"></feColorMatrix>
        </filter>
    </defs>
    <g id="UI" stroke="none" stroke-width="1" fill="none" fill-rule="evenodd">
        <g id="首页" transform="translate(-326.000000, -1476.000000)">
            <g id="编组-9" transform="translate(139.000000, 1344.000000)">
                <g id="ic_equity6_1" transform="translate(187.000000, 132.000000)">
                    <circle id="椭圆形" stroke-opacity="0.34" stroke="#FFFFFF" stroke-width="0.8" cx="20" cy="20" r="19.6"></circle>
                    <g id="编组" transform="translate(12.000000, 12.000000)" filter="url(#filter-1)">
                        <g>
                            <path d="M11.5547916,7.14010927 L15.1095833,7.14010927 L8,0.792724873 L0.890416741,7.14010927 L4.44520837,7.14010927 L4.44520837,13.4874937 L11.5547916,13.4874937 L11.5547916,7.14010927 Z M12.4434895,7.93353232 L12.4434895,13.4874937 C12.4434895,13.9256891 12.0456059,14.2809167 11.5547916,14.2809167 L4.44520837,14.2809167 C3.95439407,14.2809167 3.55651046,13.9256891 3.55651046,13.4874937 L3.55651046,7.93353232 L0.890416741,7.93353232 C0.098883138,7.93353232 -0.298068594,7.07875122 0.262403553,6.57942365 L7.37198681,0.232039251 C7.71895527,-0.0773464171 8.28104473,-0.0773464171 8.62801319,0.232039251 L15.7375964,6.57942365 C16.2980686,7.07875122 15.9011169,7.93353232 15.1095833,7.93353232 L12.4434895,7.93353232 L12.4434895,7.93353232 Z M4.14897573,16 C3.90356858,16 3.70462678,15.8223862 3.70462678,15.6032885 C3.70462678,15.3841907 3.90356858,15.2065769 4.14897573,15.2065769 L11.8510243,15.2065769 C12.0964314,15.2065769 12.2953732,15.3841907 12.2953732,15.6032885 C12.2953732,15.8223862 12.0964314,16 11.8510243,16 L4.14897573,16 Z" id="形状" fill="#000000" fill-rule="nonzero"></path>
                        </g>
                    </g>
                </g>
            </g>
        </g>
    </g>
</svg>