<?xml version="1.0" encoding="UTF-8"?>
<svg width="40px" height="40px" viewBox="0 0 40 40" version="1.1" xmlns="http://www.w3.org/2000/svg" xmlns:xlink="http://www.w3.org/1999/xlink">
    <title>ic_equity8_5</title>
    <g id="UI" stroke="none" stroke-width="1" fill="none" fill-rule="evenodd">
        <g id="首页" transform="translate(-139.000000, -1476.000000)">
            <g id="编组-9" transform="translate(139.000000, 1344.000000)">
                <g id="ic_equity8_5" transform="translate(0.000000, 132.000000)">
                    <circle id="椭圆形" stroke-opacity="0.34" stroke="#FFFFFF" stroke-width="0.8" cx="20" cy="20" r="19.6"></circle>
                    <g id="编组" transform="translate(20.000000, 19.947368) rotate(-90.000000) translate(-20.000000, -19.947368) translate(11.578947, 12.578947)" fill-rule="nonzero">
                        <path d="M15.149964,0.4 L15.749964,13.7368421 L1,14.3368421 L0.4,1 L15.149964,0.4 Z" id="路径" stroke="#FFFFFF" stroke-width="0.8"></path>
                        <polygon id="路径" fill="#FFFFFF" points="11.5356885 8.78254414 8.74646235 7.7405734 8.74646235 9.8245614 4.61427541 6.10315425 7.50680627 7.29398128 7.50680627 4.9122807"></polygon>
                        <path d="M16.8421053,5.40350818 L16.8421053,9.33335358 C16.8421053,9.49707048 16.7372339,9.82458105 16.5274911,9.82458105 L16.0031506,9.82458105 C15.8982956,9.82458105 15.6885364,9.66083856 15.6885364,9.33335358 L15.6885364,5.40350818 C15.6885364,5.23979127 15.7934078,4.9122807 16.0031506,4.9122807 L16.5274911,4.9122807 C16.7372339,4.9122807 16.8421053,5.07602319 16.8421053,5.40350818 L16.8421053,5.40350818 Z" id="路径" fill="#FFFFFF"></path>
                    </g>
                </g>
            </g>
        </g>
    </g>
</svg>